<svg xmlns="http://www.w3.org/2000/svg" viewBox="0 0 386 114"><defs><style>.cls-1{isolation:isolate;}.cls-2{opacity:0.75;mix-blend-mode:multiply;}.cls-10,.cls-11,.cls-12,.cls-3,.cls-4,.cls-5,.cls-6,.cls-8,.cls-9{fill:none;}.cls-3,.cls-4,.cls-5,.cls-6{stroke:#cfcf29;}.cls-3,.cls-8{stroke-width:13.26px;}.cls-4,.cls-9{stroke-width:20.1px;}.cls-10,.cls-5{stroke-linecap:round;}.cls-10,.cls-11,.cls-12,.cls-5,.cls-6{stroke-miterlimit:10;stroke-width:7.27px;}.cls-7{fill:#cfcf29;}.cls-8,.cls-9{stroke:#fff;}.cls-10,.cls-12{stroke:#42a9df;}.cls-11{stroke:#ec186a;}.cls-13{fill:#42a9df;}.cls-14{fill:#ec186a;}</style></defs><title>friendLynk_Logo</title><g class="cls-1"><g id="Layer_1" data-name="Layer 1"><g id="friendLynk"><g class="cls-2"><path class="cls-3" d="M290.74,31.41h0c0-4.23-3.89-7.7-8.63-7.7H253.83c-4.75,0-8.64,3.47-8.64,7.7h0c0,4.24,3.89,7.7,8.64,7.7"/><path class="cls-3" d="M283.47,31.41c0,4.24,3.89,7.7,8.63,7.7h28.28c4.75,0,8.63-3.46,8.63-7.7h0c0-4.23-3.88-7.7-8.63-7.7H292.1"/><path class="cls-3" d="M282.11,39.11c4.74,0,8.63-3.46,8.63-7.7"/><line class="cls-3" x1="253.83" y1="39.11" x2="282.11" y2="39.11"/><path class="cls-3" d="M292.1,23.71c-4.74,0-8.63,3.47-8.63,7.7h0"/><path class="cls-3" d="M290.74,31.41h0c0-4.23-3.89-7.7-8.63-7.7H253.83c-4.75,0-8.64,3.47-8.64,7.7h0c0,4.24,3.89,7.7,8.64,7.7"/><path class="cls-3" d="M283.47,31.41c0,4.24,3.89,7.7,8.63,7.7h28.28c4.75,0,8.63-3.46,8.63-7.7h0c0-4.23-3.88-7.7-8.63-7.7H292.1"/><path class="cls-3" d="M282.11,39.11c4.74,0,8.63-3.46,8.63-7.7"/><line class="cls-3" x1="253.83" y1="39.11" x2="282.11" y2="39.11"/><path class="cls-3" d="M292.1,23.71c-4.74,0-8.63,3.47-8.63,7.7h0"/><path class="cls-3" d="M290.74,31.41h0c0-4.23-3.89-7.7-8.63-7.7H253.83c-4.75,0-8.64,3.47-8.64,7.7h0c0,4.24,3.89,7.7,8.64,7.7"/><path class="cls-3" d="M283.47,31.41c0,4.24,3.89,7.7,8.63,7.7h28.28c4.75,0,8.63-3.46,8.63-7.7h0c0-4.23-3.88-7.7-8.63-7.7H292.1"/><path class="cls-3" d="M282.11,39.11c4.74,0,8.63-3.46,8.63-7.7"/><line class="cls-3" x1="253.83" y1="39.11" x2="282.11" y2="39.11"/><path class="cls-3" d="M292.1,23.71c-4.74,0-8.63,3.47-8.63,7.7h0"/><path class="cls-3" d="M13.07,83V38.16a17.93,17.93,0,0,1,4.4-12.37,13.76,13.76,0,0,1,10.65-4.95h6.16A4.31,4.31,0,0,1,38,22.58a6.71,6.71,0,0,1,1.28,4.07A6.69,6.69,0,0,1,38,30.77a4.36,4.36,0,0,1-3.68,1.7H31q-4.71,0-4.71,4.62v9.23H36a2.65,2.65,0,0,1,2.39,1.54,7.32,7.32,0,0,1,.86,3.6,7.17,7.17,0,0,1-.86,3.63A2.64,2.64,0,0,1,36,56.59H26.32V83.13a3.23,3.23,0,0,1-2,2.78A9.55,9.55,0,0,1,19.57,87a8.92,8.92,0,0,1-4.67-1.12A3.36,3.36,0,0,1,13.07,83Z"/><path class="cls-3" d="M41.55,82.93V50.34a3.3,3.3,0,0,1,1.84-2.9,8.88,8.88,0,0,1,4.66-1.12,7.55,7.55,0,0,1,4.19,1.12A3.39,3.39,0,0,1,54,50.38v3.19a14.45,14.45,0,0,1,4.23-5.43,9.35,9.35,0,0,1,5.95-2.33h2.48a4.19,4.19,0,0,1,3.29,1.72,6.2,6.2,0,0,1,1.41,4,6.33,6.33,0,0,1-1.41,4.14,4.16,4.16,0,0,1-3.29,1.72H64.13c-2.46,0-4.62,1.18-6.5,3.54a14.22,14.22,0,0,0-2.83,9.17V82.94c0,1-.67,2-2,2.82A8.66,8.66,0,0,1,48.05,87a8.25,8.25,0,0,1-4.62-1.24A3.49,3.49,0,0,1,41.55,82.93Z"/><path class="cls-3" d="M75.16,39.27a5.23,5.23,0,0,1-2-4.11,5.13,5.13,0,0,1,2-4.06,7.49,7.49,0,0,1,5-1.71A7.39,7.39,0,0,1,85,31.1a5.16,5.16,0,0,1,2,4.06,5.26,5.26,0,0,1-2,4.11A7.27,7.27,0,0,1,80.12,41,7.37,7.37,0,0,1,75.16,39.27ZM73.53,82.93V50.34a3.32,3.32,0,0,1,1.84-2.9,9.1,9.1,0,0,1,4.75-1.12,9.4,9.4,0,0,1,4.75,1.12,3.3,3.3,0,0,1,1.92,2.9V82.93c0,1-.65,2-2,2.82a9.36,9.36,0,0,1-9.4,0A3.5,3.5,0,0,1,73.53,82.93Z"/><path class="cls-3" d="M91.15,69.76V63.52A16.27,16.27,0,0,1,96.93,51a20,20,0,0,1,13.89-5.22,19.41,19.41,0,0,1,13,4.59,14.7,14.7,0,0,1,5.38,11.71,11.93,11.93,0,0,1-.68,4.42,4.33,4.33,0,0,1-2,2.38,9.88,9.88,0,0,1-2.53.89,17.44,17.44,0,0,1-3,.22H104.41v.51a6.32,6.32,0,0,0,2.39,5.15,9.73,9.73,0,0,0,6.33,1.95A14.15,14.15,0,0,0,119.42,76a13.26,13.26,0,0,1,4.41-1.62,4.09,4.09,0,0,1,3.5,2,6.86,6.86,0,0,1,1.37,3.8q0,2.66-4.58,5.18a23.21,23.21,0,0,1-11.33,2.52q-9.58,0-15.61-5A16.24,16.24,0,0,1,91.15,69.76Zm13.26-7.19H115a1.61,1.61,0,0,0,1.79-1.85A3.89,3.89,0,0,0,115,57.31a7.71,7.71,0,0,0-4.4-1.24,7.57,7.57,0,0,0-4.32,1.24,3.89,3.89,0,0,0-1.84,3.41Z"/><path class="cls-3" d="M133.4,82.93V50.34a3.32,3.32,0,0,1,1.84-2.9A9.1,9.1,0,0,1,140,46.32a7.35,7.35,0,0,1,4.1,1.12,3.4,3.4,0,0,1,1.72,2.94v2a11.55,11.55,0,0,1,4.4-4.65,13,13,0,0,1,7.06-1.9q5.89,0,10.22,5.3a19.43,19.43,0,0,1,4.32,12.66V82.93a3.34,3.34,0,0,1-2,3,9.74,9.74,0,0,1-4.7,1.07,9.3,9.3,0,0,1-4.58-1.11,3.35,3.35,0,0,1-2-3V63.84a6.31,6.31,0,0,0-1.84-4.44,5.78,5.78,0,0,0-4.32-2,5.53,5.53,0,0,0-4,1.75,6.28,6.28,0,0,0-1.75,4.65v19.1c0,1-.67,2-2,2.82A8.51,8.51,0,0,1,140,87a8.41,8.41,0,0,1-4.7-1.24A3.5,3.5,0,0,1,133.4,82.93Z"/><path class="cls-3" d="M175.91,69.76v-6a19.06,19.06,0,0,1,4.45-12.66,13.52,13.52,0,0,1,10.69-5.3,11.54,11.54,0,0,1,6.54,1.9,12.59,12.59,0,0,1,4.32,4.65V24.17a3.29,3.29,0,0,1,1.93-2.91,9.54,9.54,0,0,1,4.83-1.11,8.91,8.91,0,0,1,4.66,1.11,3.31,3.31,0,0,1,1.84,2.91V82.94a3.49,3.49,0,0,1-1.88,2.86A8.29,8.29,0,0,1,208.67,87a6.75,6.75,0,0,1-4.15-1.3,3.59,3.59,0,0,1-1.75-2.84V81a11.71,11.71,0,0,1-4.71,4.87,13.72,13.72,0,0,1-7.27,2q-5.89,0-10.39-5.47A19.4,19.4,0,0,1,175.91,69.76Zm13.26,0A6.49,6.49,0,0,0,191,74.27a5.67,5.67,0,0,0,4.32,2,6.34,6.34,0,0,0,4.53-2c1.37-1.36,2-2.49,2-3.4v-7a5.85,5.85,0,0,0-2-4.58,6.63,6.63,0,0,0-4.49-1.78,5.83,5.83,0,0,0-4.4,2,6.25,6.25,0,0,0-1.84,4.41Z"/><path class="cls-3" d="M222,82.93V24.26a3.26,3.26,0,0,1,2-3,11.36,11.36,0,0,1,9.41,0,3.25,3.25,0,0,1,2,3V75.4h19.51a3.17,3.17,0,0,1,2.82,1.71,8.79,8.79,0,0,1,0,8.22A3.17,3.17,0,0,1,254.86,87h-27A7.62,7.62,0,0,1,223.72,86,3.4,3.4,0,0,1,222,82.93Z"/><path class="cls-3" d="M250.49,99.69c0-3.82,1.09-5.73,3.25-5.73q12.15,0,12.15-10.83l-15-29.45a3.78,3.78,0,0,1-.43-1.69q0-2.37,3.08-4.32a11.1,11.1,0,0,1,5.9-2c1.89,0,3.11.71,3.68,2.12l9.67,22.94,7.1-22.94a3.32,3.32,0,0,1,3.42-2.12,11.65,11.65,0,0,1,5.9,2c2.16,1.33,3.25,2.84,3.25,4.53a3,3,0,0,1-.34,1.46L280,84c-.28.8-.8,2.15-1.54,4L276.92,92a27.43,27.43,0,0,1-1.58,3.55,16.61,16.61,0,0,1-2.14,3.39,34.23,34.23,0,0,1-2.69,2.65,11,11,0,0,1-3.6,2.23,34.13,34.13,0,0,1-4.53,1.24,28.43,28.43,0,0,1-5.81.56,7.43,7.43,0,0,1-4.54-1.17C251,103.66,250.49,102.08,250.49,99.69Z"/><path class="cls-3" d="M295,82.93V50.34a3.3,3.3,0,0,1,1.84-2.9,9,9,0,0,1,4.74-1.12,7.39,7.39,0,0,1,4.11,1.12,3.39,3.39,0,0,1,1.71,2.94v2a11.55,11.55,0,0,1,4.4-4.65,13,13,0,0,1,7.06-1.9q5.91,0,10.22,5.3a19.43,19.43,0,0,1,4.32,12.66V82.93a3.34,3.34,0,0,1-2,3A9.74,9.74,0,0,1,326.7,87a9.32,9.32,0,0,1-4.58-1.11,3.35,3.35,0,0,1-2-3V63.84a6.31,6.31,0,0,0-1.84-4.44,5.74,5.74,0,0,0-4.31-2,5.51,5.51,0,0,0-4,1.75,6.28,6.28,0,0,0-1.75,4.65v19.1c0,1-.68,2-2,2.82A8.57,8.57,0,0,1,301.55,87a8.41,8.41,0,0,1-4.7-1.24A3.49,3.49,0,0,1,295,82.93Z"/><path class="cls-3" d="M339,82.93V24.09a3.31,3.31,0,0,1,1.83-2.91,8.92,8.92,0,0,1,4.67-1.11,9.56,9.56,0,0,1,4.83,1.11,3.3,3.3,0,0,1,1.92,2.91V60.61l14.2-13.77a3.47,3.47,0,0,1,2.57-1,6.19,6.19,0,0,1,4.27,2.1,6,6,0,0,1,2.14,4.23,3.2,3.2,0,0,1-1,2.31l-9.07,8.38,11.72,16.42a4,4,0,0,1,.68,2.06q0,2.22-2.56,4.4a7.93,7.93,0,0,1-5.05,2.18A3.62,3.62,0,0,1,367,86.27L356.64,71l-4.37,4v8q0,1.54-2,2.82A8.58,8.58,0,0,1,345.52,87a8.25,8.25,0,0,1-4.62-1.24A3.49,3.49,0,0,1,339,82.93Z"/><path class="cls-3" d="M13.07,83V38.16a17.93,17.93,0,0,1,4.4-12.37,13.76,13.76,0,0,1,10.65-4.95h6.16A4.31,4.31,0,0,1,38,22.58a6.71,6.71,0,0,1,1.28,4.07A6.69,6.69,0,0,1,38,30.77a4.36,4.36,0,0,1-3.68,1.7H31q-4.71,0-4.71,4.62v9.23H36a2.65,2.65,0,0,1,2.39,1.54,7.32,7.32,0,0,1,.86,3.6,7.17,7.17,0,0,1-.86,3.63A2.64,2.64,0,0,1,36,56.59H26.32V83.13a3.23,3.23,0,0,1-2,2.78A9.55,9.55,0,0,1,19.57,87a8.92,8.92,0,0,1-4.67-1.12A3.36,3.36,0,0,1,13.07,83Z"/><path class="cls-3" d="M41.55,82.93V50.34a3.3,3.3,0,0,1,1.84-2.9,8.88,8.88,0,0,1,4.66-1.12,7.55,7.55,0,0,1,4.19,1.12A3.39,3.39,0,0,1,54,50.38v3.19a14.45,14.45,0,0,1,4.23-5.43,9.35,9.35,0,0,1,5.95-2.33h2.48a4.19,4.19,0,0,1,3.29,1.72,6.2,6.2,0,0,1,1.41,4,6.33,6.33,0,0,1-1.41,4.14,4.16,4.16,0,0,1-3.29,1.72H64.13c-2.46,0-4.62,1.18-6.5,3.54a14.22,14.22,0,0,0-2.83,9.17V82.94c0,1-.67,2-2,2.82A8.66,8.66,0,0,1,48.05,87a8.25,8.25,0,0,1-4.62-1.24A3.49,3.49,0,0,1,41.55,82.93Z"/><path class="cls-3" d="M75.16,39.27a5.23,5.23,0,0,1-2-4.11,5.13,5.13,0,0,1,2-4.06,7.49,7.49,0,0,1,5-1.71A7.39,7.39,0,0,1,85,31.1a5.16,5.16,0,0,1,2,4.06,5.26,5.26,0,0,1-2,4.11A7.27,7.27,0,0,1,80.12,41,7.37,7.37,0,0,1,75.16,39.27ZM73.53,82.93V50.34a3.32,3.32,0,0,1,1.84-2.9,9.1,9.1,0,0,1,4.75-1.12,9.4,9.4,0,0,1,4.75,1.12,3.3,3.3,0,0,1,1.92,2.9V82.93c0,1-.65,2-2,2.82a9.36,9.36,0,0,1-9.4,0A3.5,3.5,0,0,1,73.53,82.93Z"/><path class="cls-3" d="M91.15,69.76V63.52A16.27,16.27,0,0,1,96.93,51a20,20,0,0,1,13.89-5.22,19.41,19.41,0,0,1,13,4.59,14.7,14.7,0,0,1,5.38,11.71,11.93,11.93,0,0,1-.68,4.42,4.33,4.33,0,0,1-2,2.38,9.88,9.88,0,0,1-2.53.89,17.44,17.44,0,0,1-3,.22H104.41v.51a6.32,6.32,0,0,0,2.39,5.15,9.73,9.73,0,0,0,6.33,1.95A14.15,14.15,0,0,0,119.42,76a13.26,13.26,0,0,1,4.41-1.62,4.09,4.09,0,0,1,3.5,2,6.86,6.86,0,0,1,1.37,3.8q0,2.66-4.58,5.18a23.21,23.21,0,0,1-11.33,2.52q-9.58,0-15.61-5A16.24,16.24,0,0,1,91.15,69.76Zm13.26-7.19H115a1.61,1.61,0,0,0,1.79-1.85A3.89,3.89,0,0,0,115,57.31a7.71,7.71,0,0,0-4.4-1.24,7.57,7.57,0,0,0-4.32,1.24,3.89,3.89,0,0,0-1.84,3.41Z"/><path class="cls-3" d="M133.4,82.93V50.34a3.32,3.32,0,0,1,1.84-2.9A9.1,9.1,0,0,1,140,46.32a7.35,7.35,0,0,1,4.1,1.12,3.4,3.4,0,0,1,1.72,2.94v2a11.55,11.55,0,0,1,4.4-4.65,13,13,0,0,1,7.06-1.9q5.89,0,10.22,5.3a19.43,19.43,0,0,1,4.32,12.66V82.93a3.34,3.34,0,0,1-2,3,9.74,9.74,0,0,1-4.7,1.07,9.3,9.3,0,0,1-4.58-1.11,3.35,3.35,0,0,1-2-3V63.84a6.31,6.31,0,0,0-1.84-4.44,5.78,5.78,0,0,0-4.32-2,5.53,5.53,0,0,0-4,1.75,6.28,6.28,0,0,0-1.75,4.65v19.1c0,1-.67,2-2,2.82A8.51,8.51,0,0,1,140,87a8.41,8.41,0,0,1-4.7-1.24A3.5,3.5,0,0,1,133.4,82.93Z"/><path class="cls-3" d="M175.91,69.76v-6a19.06,19.06,0,0,1,4.45-12.66,13.52,13.52,0,0,1,10.69-5.3,11.54,11.54,0,0,1,6.54,1.9,12.59,12.59,0,0,1,4.32,4.65V24.17a3.29,3.29,0,0,1,1.93-2.91,9.54,9.54,0,0,1,4.83-1.11,8.91,8.91,0,0,1,4.66,1.11,3.31,3.31,0,0,1,1.84,2.91V82.94a3.49,3.49,0,0,1-1.88,2.86A8.29,8.29,0,0,1,208.67,87a6.75,6.75,0,0,1-4.15-1.3,3.59,3.59,0,0,1-1.75-2.84V81a11.71,11.71,0,0,1-4.71,4.87,13.72,13.72,0,0,1-7.27,2q-5.89,0-10.39-5.47A19.4,19.4,0,0,1,175.91,69.76Zm13.26,0A6.49,6.49,0,0,0,191,74.27a5.67,5.67,0,0,0,4.32,2,6.34,6.34,0,0,0,4.53-2c1.37-1.36,2-2.49,2-3.4v-7a5.85,5.85,0,0,0-2-4.58,6.63,6.63,0,0,0-4.49-1.78,5.83,5.83,0,0,0-4.4,2,6.25,6.25,0,0,0-1.84,4.41Z"/><path class="cls-3" d="M222,82.93V24.26a3.26,3.26,0,0,1,2-3,11.36,11.36,0,0,1,9.41,0,3.25,3.25,0,0,1,2,3V75.4h19.51a3.17,3.17,0,0,1,2.82,1.71,8.79,8.79,0,0,1,0,8.22A3.17,3.17,0,0,1,254.86,87h-27A7.62,7.62,0,0,1,223.72,86,3.4,3.4,0,0,1,222,82.93Z"/><path class="cls-3" d="M250.49,99.69c0-3.82,1.09-5.73,3.25-5.73q12.15,0,12.15-10.83l-15-29.45a3.78,3.78,0,0,1-.43-1.69q0-2.37,3.08-4.32a11.1,11.1,0,0,1,5.9-2c1.89,0,3.11.71,3.68,2.12l9.67,22.94,7.1-22.94a3.32,3.32,0,0,1,3.42-2.12,11.65,11.65,0,0,1,5.9,2c2.16,1.33,3.25,2.84,3.25,4.53a3,3,0,0,1-.34,1.46L280,84c-.28.8-.8,2.15-1.54,4L276.92,92a27.43,27.43,0,0,1-1.58,3.55,16.61,16.61,0,0,1-2.14,3.39,34.23,34.23,0,0,1-2.69,2.65,11,11,0,0,1-3.6,2.23,34.13,34.13,0,0,1-4.53,1.24,28.43,28.43,0,0,1-5.81.56,7.43,7.43,0,0,1-4.54-1.17C251,103.66,250.49,102.08,250.49,99.69Z"/><path class="cls-3" d="M295,82.93V50.34a3.3,3.3,0,0,1,1.84-2.9,9,9,0,0,1,4.74-1.12,7.39,7.39,0,0,1,4.11,1.12,3.39,3.39,0,0,1,1.71,2.94v2a11.55,11.55,0,0,1,4.4-4.65,13,13,0,0,1,7.06-1.9q5.91,0,10.22,5.3a19.43,19.43,0,0,1,4.32,12.66V82.93a3.34,3.34,0,0,1-2,3A9.74,9.74,0,0,1,326.7,87a9.32,9.32,0,0,1-4.58-1.11,3.35,3.35,0,0,1-2-3V63.84a6.31,6.31,0,0,0-1.84-4.44,5.74,5.74,0,0,0-4.31-2,5.51,5.51,0,0,0-4,1.75,6.28,6.28,0,0,0-1.75,4.65v19.1c0,1-.68,2-2,2.82A8.57,8.57,0,0,1,301.55,87a8.41,8.41,0,0,1-4.7-1.24A3.49,3.49,0,0,1,295,82.93Z"/><path class="cls-3" d="M339,82.93V24.09a3.31,3.31,0,0,1,1.83-2.91,8.92,8.92,0,0,1,4.67-1.11,9.56,9.56,0,0,1,4.83,1.11,3.3,3.3,0,0,1,1.92,2.91V60.61l14.2-13.77a3.47,3.47,0,0,1,2.57-1,6.19,6.19,0,0,1,4.27,2.1,6,6,0,0,1,2.14,4.23,3.2,3.2,0,0,1-1,2.31l-9.07,8.38,11.72,16.42a4,4,0,0,1,.68,2.06q0,2.22-2.56,4.4a7.93,7.93,0,0,1-5.05,2.18A3.62,3.62,0,0,1,367,86.27L356.64,71l-4.37,4v8q0,1.54-2,2.82A8.58,8.58,0,0,1,345.52,87a8.25,8.25,0,0,1-4.62-1.24A3.49,3.49,0,0,1,339,82.93Z"/><path class="cls-3" d="M13.07,83V38.16a17.93,17.93,0,0,1,4.4-12.37,13.76,13.76,0,0,1,10.65-4.95h6.16A4.31,4.31,0,0,1,38,22.58a6.71,6.71,0,0,1,1.28,4.07A6.69,6.69,0,0,1,38,30.77a4.36,4.36,0,0,1-3.68,1.7H31q-4.71,0-4.71,4.62v9.23H36a2.65,2.65,0,0,1,2.39,1.54,7.32,7.32,0,0,1,.86,3.6,7.17,7.17,0,0,1-.86,3.63A2.64,2.64,0,0,1,36,56.59H26.32V83.13a3.23,3.23,0,0,1-2,2.78A9.55,9.55,0,0,1,19.57,87a8.92,8.92,0,0,1-4.67-1.12A3.36,3.36,0,0,1,13.07,83Z"/><path class="cls-3" d="M41.55,82.93V50.34a3.3,3.3,0,0,1,1.84-2.9,8.88,8.88,0,0,1,4.66-1.12,7.55,7.55,0,0,1,4.19,1.12A3.39,3.39,0,0,1,54,50.38v3.19a14.45,14.45,0,0,1,4.23-5.43,9.35,9.35,0,0,1,5.95-2.33h2.48a4.19,4.19,0,0,1,3.29,1.72,6.2,6.2,0,0,1,1.41,4,6.33,6.33,0,0,1-1.41,4.14,4.16,4.16,0,0,1-3.29,1.72H64.13c-2.46,0-4.62,1.18-6.5,3.54a14.22,14.22,0,0,0-2.83,9.17V82.94c0,1-.67,2-2,2.82A8.66,8.66,0,0,1,48.05,87a8.25,8.25,0,0,1-4.62-1.24A3.49,3.49,0,0,1,41.55,82.93Z"/><path class="cls-3" d="M75.16,39.27a5.23,5.23,0,0,1-2-4.11,5.13,5.13,0,0,1,2-4.06,7.49,7.49,0,0,1,5-1.71A7.39,7.39,0,0,1,85,31.1a5.16,5.16,0,0,1,2,4.06,5.26,5.26,0,0,1-2,4.11A7.27,7.27,0,0,1,80.12,41,7.37,7.37,0,0,1,75.16,39.27ZM73.53,82.93V50.34a3.32,3.32,0,0,1,1.84-2.9,9.1,9.1,0,0,1,4.75-1.12,9.4,9.4,0,0,1,4.75,1.12,3.3,3.3,0,0,1,1.92,2.9V82.93c0,1-.65,2-2,2.82a9.36,9.36,0,0,1-9.4,0A3.5,3.5,0,0,1,73.53,82.93Z"/><path class="cls-3" d="M91.15,69.76V63.52A16.27,16.27,0,0,1,96.93,51a20,20,0,0,1,13.89-5.22,19.41,19.41,0,0,1,13,4.59,14.7,14.7,0,0,1,5.38,11.71,11.93,11.93,0,0,1-.68,4.42,4.33,4.33,0,0,1-2,2.38,9.88,9.88,0,0,1-2.53.89,17.44,17.44,0,0,1-3,.22H104.41v.51a6.32,6.32,0,0,0,2.39,5.15,9.73,9.73,0,0,0,6.33,1.95A14.15,14.15,0,0,0,119.42,76a13.26,13.26,0,0,1,4.41-1.62,4.09,4.09,0,0,1,3.5,2,6.86,6.86,0,0,1,1.37,3.8q0,2.66-4.58,5.18a23.21,23.21,0,0,1-11.33,2.52q-9.58,0-15.61-5A16.24,16.24,0,0,1,91.15,69.76Zm13.26-7.19H115a1.61,1.61,0,0,0,1.79-1.85A3.89,3.89,0,0,0,115,57.31a7.71,7.71,0,0,0-4.4-1.24,7.57,7.57,0,0,0-4.32,1.24,3.89,3.89,0,0,0-1.84,3.41Z"/><path class="cls-3" d="M133.4,82.93V50.34a3.32,3.32,0,0,1,1.84-2.9A9.1,9.1,0,0,1,140,46.32a7.35,7.35,0,0,1,4.1,1.12,3.4,3.4,0,0,1,1.72,2.94v2a11.55,11.55,0,0,1,4.4-4.65,13,13,0,0,1,7.06-1.9q5.89,0,10.22,5.3a19.43,19.43,0,0,1,4.32,12.66V82.93a3.34,3.34,0,0,1-2,3,9.74,9.74,0,0,1-4.7,1.07,9.3,9.3,0,0,1-4.58-1.11,3.35,3.35,0,0,1-2-3V63.84a6.31,6.31,0,0,0-1.84-4.44,5.78,5.78,0,0,0-4.32-2,5.53,5.53,0,0,0-4,1.75,6.28,6.28,0,0,0-1.75,4.65v19.1c0,1-.67,2-2,2.82A8.51,8.51,0,0,1,140,87a8.41,8.41,0,0,1-4.7-1.24A3.5,3.5,0,0,1,133.4,82.93Z"/><path class="cls-3" d="M175.91,69.76v-6a19.06,19.06,0,0,1,4.45-12.66,13.52,13.52,0,0,1,10.69-5.3,11.54,11.54,0,0,1,6.54,1.9,12.59,12.59,0,0,1,4.32,4.65V24.17a3.29,3.29,0,0,1,1.93-2.91,9.54,9.54,0,0,1,4.83-1.11,8.91,8.91,0,0,1,4.66,1.11,3.31,3.31,0,0,1,1.84,2.91V82.94a3.49,3.49,0,0,1-1.88,2.86A8.29,8.29,0,0,1,208.67,87a6.75,6.75,0,0,1-4.15-1.3,3.59,3.59,0,0,1-1.75-2.84V81a11.71,11.71,0,0,1-4.71,4.87,13.72,13.72,0,0,1-7.27,2q-5.89,0-10.39-5.47A19.4,19.4,0,0,1,175.91,69.76Zm13.26,0A6.49,6.49,0,0,0,191,74.27a5.67,5.67,0,0,0,4.32,2,6.34,6.34,0,0,0,4.53-2c1.37-1.36,2-2.49,2-3.4v-7a5.85,5.85,0,0,0-2-4.58,6.63,6.63,0,0,0-4.49-1.78,5.83,5.83,0,0,0-4.4,2,6.25,6.25,0,0,0-1.84,4.41Z"/><path class="cls-3" d="M222,82.93V24.26a3.26,3.26,0,0,1,2-3,11.36,11.36,0,0,1,9.41,0,3.25,3.25,0,0,1,2,3V75.4h19.51a3.17,3.17,0,0,1,2.82,1.71,8.79,8.79,0,0,1,0,8.22A3.17,3.17,0,0,1,254.86,87h-27A7.62,7.62,0,0,1,223.72,86,3.4,3.4,0,0,1,222,82.93Z"/><path class="cls-3" d="M250.49,99.69c0-3.82,1.09-5.73,3.25-5.73q12.15,0,12.15-10.83l-15-29.45a3.78,3.78,0,0,1-.43-1.69q0-2.37,3.08-4.32a11.1,11.1,0,0,1,5.9-2c1.89,0,3.11.71,3.68,2.12l9.67,22.94,7.1-22.94a3.32,3.32,0,0,1,3.42-2.12,11.65,11.65,0,0,1,5.9,2c2.16,1.33,3.25,2.84,3.25,4.53a3,3,0,0,1-.34,1.46L280,84c-.28.8-.8,2.15-1.54,4L276.92,92a27.43,27.43,0,0,1-1.58,3.55,16.61,16.61,0,0,1-2.14,3.39,34.23,34.23,0,0,1-2.69,2.65,11,11,0,0,1-3.6,2.23,34.13,34.13,0,0,1-4.53,1.24,28.43,28.43,0,0,1-5.81.56,7.43,7.43,0,0,1-4.54-1.17C251,103.66,250.49,102.08,250.49,99.69Z"/><path class="cls-3" d="M295,82.93V50.34a3.3,3.3,0,0,1,1.84-2.9,9,9,0,0,1,4.74-1.12,7.39,7.39,0,0,1,4.11,1.12,3.39,3.39,0,0,1,1.71,2.94v2a11.55,11.55,0,0,1,4.4-4.65,13,13,0,0,1,7.06-1.9q5.91,0,10.22,5.3a19.43,19.43,0,0,1,4.32,12.66V82.93a3.34,3.34,0,0,1-2,3A9.74,9.74,0,0,1,326.7,87a9.32,9.32,0,0,1-4.58-1.11,3.35,3.35,0,0,1-2-3V63.84a6.31,6.31,0,0,0-1.84-4.44,5.74,5.74,0,0,0-4.31-2,5.51,5.51,0,0,0-4,1.75,6.28,6.28,0,0,0-1.75,4.65v19.1c0,1-.68,2-2,2.82A8.57,8.57,0,0,1,301.55,87a8.41,8.41,0,0,1-4.7-1.24A3.49,3.49,0,0,1,295,82.93Z"/><path class="cls-3" d="M339,82.93V24.09a3.31,3.31,0,0,1,1.83-2.91,8.92,8.92,0,0,1,4.67-1.11,9.56,9.56,0,0,1,4.83,1.11,3.3,3.3,0,0,1,1.92,2.91V60.61l14.2-13.77a3.47,3.47,0,0,1,2.57-1,6.19,6.19,0,0,1,4.27,2.1,6,6,0,0,1,2.14,4.23,3.2,3.2,0,0,1-1,2.31l-9.07,8.38,11.72,16.42a4,4,0,0,1,.68,2.06q0,2.22-2.56,4.4a7.93,7.93,0,0,1-5.05,2.18A3.62,3.62,0,0,1,367,86.27L356.64,71l-4.37,4v8q0,1.54-2,2.82A8.58,8.58,0,0,1,345.52,87a8.25,8.25,0,0,1-4.62-1.24A3.49,3.49,0,0,1,339,82.93Z"/><path class="cls-4" d="M290.74,31.41h0c0-4.23-3.89-7.7-8.63-7.7H253.83c-4.75,0-8.64,3.47-8.64,7.7h0c0,4.24,3.89,7.7,8.64,7.7"/><path class="cls-4" d="M283.47,31.41c0,4.24,3.89,7.7,8.63,7.7h28.28c4.75,0,8.63-3.46,8.63-7.7h0c0-4.23-3.88-7.7-8.63-7.7H292.1"/><path class="cls-4" d="M282.11,39.11c4.74,0,8.63-3.46,8.63-7.7"/><line class="cls-4" x1="253.83" y1="39.11" x2="282.11" y2="39.11"/><path class="cls-4" d="M292.1,23.71c-4.74,0-8.63,3.47-8.63,7.7h0"/><path class="cls-5" d="M290.74,31.41h0c0-4.23-3.89-7.7-8.63-7.7H253.83c-4.75,0-8.64,3.47-8.64,7.7h0c0,4.24,3.89,7.7,8.64,7.7"/><path class="cls-6" d="M283.47,31.41c0,4.24,3.89,7.7,8.63,7.7h28.28c4.75,0,8.63-3.46,8.63-7.7h0c0-4.23-3.88-7.7-8.63-7.7H292.1"/><path class="cls-6" d="M282.11,39.11c4.74,0,8.63-3.46,8.63-7.7"/><line class="cls-5" x1="253.83" y1="39.11" x2="282.11" y2="39.11"/><path class="cls-6" d="M292.1,23.71c-4.74,0-8.63,3.47-8.63,7.7h0"/><path class="cls-7" d="M13.07,83V38.16a17.93,17.93,0,0,1,4.4-12.37,13.76,13.76,0,0,1,10.65-4.95h6.16A4.31,4.31,0,0,1,38,22.58a6.71,6.71,0,0,1,1.28,4.07A6.69,6.69,0,0,1,38,30.77a4.36,4.36,0,0,1-3.68,1.7H31q-4.71,0-4.71,4.62v9.23H36a2.65,2.65,0,0,1,2.39,1.54,7.32,7.32,0,0,1,.86,3.6,7.17,7.17,0,0,1-.86,3.63A2.64,2.64,0,0,1,36,56.59H26.32V83.13a3.23,3.23,0,0,1-2,2.78A9.55,9.55,0,0,1,19.57,87a8.92,8.92,0,0,1-4.67-1.12A3.36,3.36,0,0,1,13.07,83Z"/><path class="cls-7" d="M41.55,82.93V50.34a3.3,3.3,0,0,1,1.84-2.9,8.88,8.88,0,0,1,4.66-1.12,7.55,7.55,0,0,1,4.19,1.12A3.39,3.39,0,0,1,54,50.38v3.19a14.45,14.45,0,0,1,4.23-5.43,9.35,9.35,0,0,1,5.95-2.33h2.48a4.19,4.19,0,0,1,3.29,1.72,6.2,6.2,0,0,1,1.41,4,6.33,6.33,0,0,1-1.41,4.14,4.16,4.16,0,0,1-3.29,1.72H64.13c-2.46,0-4.62,1.18-6.5,3.54a14.22,14.22,0,0,0-2.83,9.17V82.94c0,1-.67,2-2,2.82A8.66,8.66,0,0,1,48.05,87a8.25,8.25,0,0,1-4.62-1.24A3.49,3.49,0,0,1,41.55,82.93Z"/><path class="cls-7" d="M75.16,39.27a5.23,5.23,0,0,1-2-4.11,5.13,5.13,0,0,1,2-4.06,7.49,7.49,0,0,1,5-1.71A7.39,7.39,0,0,1,85,31.1a5.16,5.16,0,0,1,2,4.06,5.26,5.26,0,0,1-2,4.11A7.27,7.27,0,0,1,80.12,41,7.37,7.37,0,0,1,75.16,39.27ZM73.53,82.93V50.34a3.32,3.32,0,0,1,1.84-2.9,9.1,9.1,0,0,1,4.75-1.12,9.4,9.4,0,0,1,4.75,1.12,3.3,3.3,0,0,1,1.92,2.9V82.93c0,1-.65,2-2,2.82a9.36,9.36,0,0,1-9.4,0A3.5,3.5,0,0,1,73.53,82.93Z"/><path class="cls-7" d="M91.15,69.76V63.52A16.27,16.27,0,0,1,96.93,51a20,20,0,0,1,13.89-5.22,19.41,19.41,0,0,1,13,4.59,14.7,14.7,0,0,1,5.38,11.71,11.93,11.93,0,0,1-.68,4.42,4.33,4.33,0,0,1-2,2.38,9.88,9.88,0,0,1-2.53.89,17.44,17.44,0,0,1-3,.22H104.41v.51a6.32,6.32,0,0,0,2.39,5.15,9.73,9.73,0,0,0,6.33,1.95A14.15,14.15,0,0,0,119.42,76a13.26,13.26,0,0,1,4.41-1.62,4.09,4.09,0,0,1,3.5,2,6.86,6.86,0,0,1,1.37,3.8q0,2.66-4.58,5.18a23.21,23.21,0,0,1-11.33,2.52q-9.58,0-15.61-5A16.24,16.24,0,0,1,91.15,69.76Zm13.26-7.19H115a1.61,1.61,0,0,0,1.79-1.85A3.89,3.89,0,0,0,115,57.31a7.71,7.71,0,0,0-4.4-1.24,7.57,7.57,0,0,0-4.32,1.24,3.89,3.89,0,0,0-1.84,3.41Z"/><path class="cls-7" d="M133.4,82.93V50.34a3.32,3.32,0,0,1,1.84-2.9A9.1,9.1,0,0,1,140,46.32a7.35,7.35,0,0,1,4.1,1.12,3.4,3.4,0,0,1,1.72,2.94v2a11.55,11.55,0,0,1,4.4-4.65,13,13,0,0,1,7.06-1.9q5.89,0,10.22,5.3a19.43,19.43,0,0,1,4.32,12.66V82.93a3.34,3.34,0,0,1-2,3,9.74,9.74,0,0,1-4.7,1.07,9.3,9.3,0,0,1-4.58-1.11,3.35,3.35,0,0,1-2-3V63.84a6.31,6.31,0,0,0-1.84-4.44,5.78,5.78,0,0,0-4.32-2,5.53,5.53,0,0,0-4,1.75,6.28,6.28,0,0,0-1.75,4.65v19.1c0,1-.67,2-2,2.82A8.51,8.51,0,0,1,140,87a8.41,8.41,0,0,1-4.7-1.24A3.5,3.5,0,0,1,133.4,82.93Z"/><path class="cls-7" d="M175.91,69.76v-6a19.06,19.06,0,0,1,4.45-12.66,13.52,13.52,0,0,1,10.69-5.3,11.54,11.54,0,0,1,6.54,1.9,12.59,12.59,0,0,1,4.32,4.65V24.17a3.29,3.29,0,0,1,1.93-2.91,9.54,9.54,0,0,1,4.83-1.11,8.91,8.91,0,0,1,4.66,1.11,3.31,3.31,0,0,1,1.84,2.91V82.94a3.49,3.49,0,0,1-1.88,2.86A8.29,8.29,0,0,1,208.67,87a6.75,6.75,0,0,1-4.15-1.3,3.59,3.59,0,0,1-1.75-2.84V81a11.71,11.71,0,0,1-4.71,4.87,13.72,13.72,0,0,1-7.27,2q-5.89,0-10.39-5.47A19.4,19.4,0,0,1,175.91,69.76Zm13.26,0A6.49,6.49,0,0,0,191,74.27a5.67,5.67,0,0,0,4.32,2,6.34,6.34,0,0,0,4.53-2c1.37-1.36,2-2.49,2-3.4v-7a5.85,5.85,0,0,0-2-4.58,6.63,6.63,0,0,0-4.49-1.78,5.83,5.83,0,0,0-4.4,2,6.25,6.25,0,0,0-1.84,4.41Z"/><path class="cls-7" d="M222,82.93V24.26a3.26,3.26,0,0,1,2-3,11.36,11.36,0,0,1,9.41,0,3.25,3.25,0,0,1,2,3V75.4h19.51a3.17,3.17,0,0,1,2.82,1.71,8.79,8.79,0,0,1,0,8.22A3.17,3.17,0,0,1,254.86,87h-27A7.62,7.62,0,0,1,223.72,86,3.4,3.4,0,0,1,222,82.93Z"/><path class="cls-7" d="M250.49,99.69c0-3.82,1.09-5.73,3.25-5.73q12.15,0,12.15-10.83l-15-29.45a3.78,3.78,0,0,1-.43-1.69q0-2.37,3.08-4.32a11.1,11.1,0,0,1,5.9-2c1.89,0,3.11.71,3.68,2.12l9.67,22.94,7.1-22.94a3.32,3.32,0,0,1,3.42-2.12,11.65,11.65,0,0,1,5.9,2c2.16,1.33,3.25,2.84,3.25,4.53a3,3,0,0,1-.34,1.46L280,84c-.28.8-.8,2.15-1.54,4L276.92,92a27.43,27.43,0,0,1-1.58,3.55,16.61,16.61,0,0,1-2.14,3.39,34.23,34.23,0,0,1-2.69,2.65,11,11,0,0,1-3.6,2.23,34.13,34.13,0,0,1-4.53,1.24,28.43,28.43,0,0,1-5.81.56,7.43,7.43,0,0,1-4.54-1.17C251,103.66,250.49,102.08,250.49,99.69Z"/><path class="cls-7" d="M295,82.93V50.34a3.3,3.3,0,0,1,1.84-2.9,9,9,0,0,1,4.74-1.12,7.39,7.39,0,0,1,4.11,1.12,3.39,3.39,0,0,1,1.71,2.94v2a11.55,11.55,0,0,1,4.4-4.65,13,13,0,0,1,7.06-1.9q5.91,0,10.22,5.3a19.43,19.43,0,0,1,4.32,12.66V82.93a3.34,3.34,0,0,1-2,3A9.74,9.74,0,0,1,326.7,87a9.32,9.32,0,0,1-4.58-1.11,3.35,3.35,0,0,1-2-3V63.84a6.31,6.31,0,0,0-1.84-4.44,5.74,5.74,0,0,0-4.31-2,5.51,5.51,0,0,0-4,1.75,6.28,6.28,0,0,0-1.75,4.65v19.1c0,1-.68,2-2,2.82A8.57,8.57,0,0,1,301.55,87a8.41,8.41,0,0,1-4.7-1.24A3.49,3.49,0,0,1,295,82.93Z"/><path class="cls-7" d="M339,82.93V24.09a3.31,3.31,0,0,1,1.83-2.91,8.92,8.92,0,0,1,4.67-1.11,9.56,9.56,0,0,1,4.83,1.11,3.3,3.3,0,0,1,1.92,2.91V60.61l14.2-13.77a3.47,3.47,0,0,1,2.57-1,6.19,6.19,0,0,1,4.27,2.1,6,6,0,0,1,2.14,4.23,3.2,3.2,0,0,1-1,2.31l-9.07,8.38,11.72,16.42a4,4,0,0,1,.68,2.06q0,2.22-2.56,4.4a7.93,7.93,0,0,1-5.05,2.18A3.62,3.62,0,0,1,367,86.27L356.64,71l-4.37,4v8q0,1.54-2,2.82A8.58,8.58,0,0,1,345.52,87a8.25,8.25,0,0,1-4.62-1.24A3.49,3.49,0,0,1,339,82.93Z"/></g><g id="Link"><path class="cls-8" d="M288.17,28.85h0c0-4.24-3.88-7.7-8.63-7.7H251.26c-4.75,0-8.63,3.46-8.63,7.7h0c0,4.23,3.88,7.69,8.63,7.69"/><path class="cls-8" d="M280.9,28.85c0,4.23,3.89,7.69,8.64,7.69h28.27c4.75,0,8.64-3.46,8.64-7.69h0c0-4.24-3.89-7.7-8.64-7.7H289.54"/><path class="cls-8" d="M279.54,36.54c4.75,0,8.63-3.46,8.63-7.69"/><line class="cls-8" x1="251.26" y1="36.54" x2="279.54" y2="36.54"/><path class="cls-8" d="M289.54,21.15c-4.75,0-8.64,3.46-8.64,7.7h0"/><path class="cls-8" d="M288.17,28.85h0c0-4.24-3.88-7.7-8.63-7.7H251.26c-4.75,0-8.63,3.46-8.63,7.7h0c0,4.23,3.88,7.69,8.63,7.69"/><path class="cls-8" d="M280.9,28.85c0,4.23,3.89,7.69,8.64,7.69h28.27c4.75,0,8.64-3.46,8.64-7.69h0c0-4.24-3.89-7.7-8.64-7.7H289.54"/><path class="cls-8" d="M279.54,36.54c4.75,0,8.63-3.46,8.63-7.69"/><line class="cls-8" x1="251.26" y1="36.54" x2="279.54" y2="36.54"/><path class="cls-8" d="M289.54,21.15c-4.75,0-8.64,3.46-8.64,7.7h0"/><path class="cls-8" d="M288.17,28.85h0c0-4.24-3.88-7.7-8.63-7.7H251.26c-4.75,0-8.63,3.46-8.63,7.7h0c0,4.23,3.88,7.69,8.63,7.69"/><path class="cls-8" d="M280.9,28.85c0,4.23,3.89,7.69,8.64,7.69h28.27c4.75,0,8.64-3.46,8.64-7.69h0c0-4.24-3.89-7.7-8.64-7.7H289.54"/><path class="cls-8" d="M279.54,36.54c4.75,0,8.63-3.46,8.63-7.69"/><line class="cls-8" x1="251.26" y1="36.54" x2="279.54" y2="36.54"/><path class="cls-8" d="M289.54,21.15c-4.75,0-8.64,3.46-8.64,7.7h0"/></g><path class="cls-8" d="M10.5,80.42V35.6a18,18,0,0,1,4.4-12.37,13.74,13.74,0,0,1,10.65-5h6.16A4.28,4.28,0,0,1,35.39,20a6.71,6.71,0,0,1,1.28,4.07,6.64,6.64,0,0,1-1.28,4.11,4.32,4.32,0,0,1-3.68,1.7H28.46c-3.14,0-4.7,1.54-4.7,4.62v9.24h9.66a2.64,2.64,0,0,1,2.4,1.54,8.11,8.11,0,0,1,0,7.23A2.66,2.66,0,0,1,33.42,54H23.76V80.56a3.25,3.25,0,0,1-2,2.79A9.59,9.59,0,0,1,17,84.47a8.79,8.79,0,0,1-4.66-1.12A3.33,3.33,0,0,1,10.5,80.42Z"/><path class="cls-8" d="M39,80.36V47.78a3.31,3.31,0,0,1,1.84-2.91,8.88,8.88,0,0,1,4.66-1.11,7.46,7.46,0,0,1,4.19,1.12,3.38,3.38,0,0,1,1.71,2.93V51a14.48,14.48,0,0,1,4.24-5.43,9.34,9.34,0,0,1,5.94-2.33H64A4.17,4.17,0,0,1,67.33,45,6.21,6.21,0,0,1,68.75,49a6.31,6.31,0,0,1-1.42,4.13A4.17,4.17,0,0,1,64,54.88H61.56q-3.68,0-6.5,3.54a14.25,14.25,0,0,0-2.82,9.16v12.8c0,1-.67,2-2,2.81a8.67,8.67,0,0,1-4.75,1.28,8.21,8.21,0,0,1-4.62-1.24A3.5,3.5,0,0,1,39,80.36Z"/><path class="cls-8" d="M72.59,36.71a5.29,5.29,0,0,1-2-4.11,5.17,5.17,0,0,1,2-4.07,7.51,7.51,0,0,1,5-1.71,7.37,7.37,0,0,1,4.88,1.71,5.14,5.14,0,0,1,2,4.07,5.26,5.26,0,0,1-2,4.11,7.3,7.3,0,0,1-4.88,1.74A7.43,7.43,0,0,1,72.59,36.71ZM71,80.36V47.78a3.31,3.31,0,0,1,1.84-2.91,9.06,9.06,0,0,1,4.74-1.11,9.35,9.35,0,0,1,4.75,1.11,3.31,3.31,0,0,1,1.93,2.91V80.36c0,1-.66,2-2,2.83a8.47,8.47,0,0,1-4.71,1.28,8.33,8.33,0,0,1-4.7-1.24A3.5,3.5,0,0,1,71,80.36Z"/><path class="cls-8" d="M88.59,67.19V61a16.26,16.26,0,0,1,5.77-12.49,20,20,0,0,1,13.9-5.22,19.34,19.34,0,0,1,13,4.6,14.7,14.7,0,0,1,5.39,11.7A11.88,11.88,0,0,1,126,64a4.26,4.26,0,0,1-2,2.38,9.39,9.39,0,0,1-2.52.9,17.71,17.71,0,0,1-3,.21H101.84V68a6.31,6.31,0,0,0,2.4,5.15,9.74,9.74,0,0,0,6.33,1.94,14.23,14.23,0,0,0,6.28-1.62,13.28,13.28,0,0,1,4.41-1.63,4.12,4.12,0,0,1,3.51,2,6.84,6.84,0,0,1,1.36,3.81q0,2.66-4.57,5.17a23.24,23.24,0,0,1-11.33,2.53q-9.58,0-15.61-5A16.22,16.22,0,0,1,88.59,67.19ZM101.84,60h10.61a1.62,1.62,0,0,0,1.8-1.86,3.9,3.9,0,0,0-1.84-3.4A7.69,7.69,0,0,0,108,53.51a7.53,7.53,0,0,0-4.32,1.24,3.9,3.9,0,0,0-1.84,3.4Z"/><path class="cls-8" d="M130.84,80.36V47.78a3.31,3.31,0,0,1,1.84-2.91,9,9,0,0,1,4.74-1.11,7.31,7.31,0,0,1,4.11,1.12,3.38,3.38,0,0,1,1.71,2.93v2a11.67,11.67,0,0,1,4.4-4.65,13.11,13.11,0,0,1,7.06-1.9q5.91,0,10.22,5.31a19.39,19.39,0,0,1,4.32,12.66V80.36a3.32,3.32,0,0,1-2,3,9.74,9.74,0,0,1-4.7,1.07A9.32,9.32,0,0,1,158,83.36a3.33,3.33,0,0,1-2-3V61.27a6.31,6.31,0,0,0-1.84-4.43,5.71,5.71,0,0,0-4.31-2,5.5,5.5,0,0,0-4,1.74,6.29,6.29,0,0,0-1.76,4.65V80.38c0,1-.67,2-2,2.81a8.51,8.51,0,0,1-4.66,1.28,8.33,8.33,0,0,1-4.7-1.24A3.47,3.47,0,0,1,130.84,80.36Z"/><path class="cls-8" d="M173.35,67.19v-6a19.06,19.06,0,0,1,4.44-12.66,13.52,13.52,0,0,1,10.69-5.31,11.62,11.62,0,0,1,6.55,1.9,12.74,12.74,0,0,1,4.32,4.65V21.6a3.3,3.3,0,0,1,1.92-2.9,9.56,9.56,0,0,1,4.83-1.11,8.92,8.92,0,0,1,4.67,1.11,3.31,3.31,0,0,1,1.83,2.9V80.37a3.46,3.46,0,0,1-1.88,2.86,8.17,8.17,0,0,1-4.62,1.24A6.78,6.78,0,0,1,202,83.18a3.6,3.6,0,0,1-1.76-2.85V78.44a11.78,11.78,0,0,1-4.7,4.86,13.78,13.78,0,0,1-7.27,2q-5.91,0-10.39-5.48A19.35,19.35,0,0,1,173.35,67.19Zm13.25,0a6.53,6.53,0,0,0,1.84,4.53,5.71,5.71,0,0,0,4.32,2,6.29,6.29,0,0,0,4.53-2c1.37-1.36,2.06-2.49,2.06-3.39v-7a5.82,5.82,0,0,0-2-4.57,6.6,6.6,0,0,0-4.49-1.78,5.86,5.86,0,0,0-4.41,1.95,6.28,6.28,0,0,0-1.84,4.4Z"/><path class="cls-8" d="M219.45,80.36V21.69a3.22,3.22,0,0,1,2-3,11.26,11.26,0,0,1,9.41,0,3.23,3.23,0,0,1,2,3V72.84h19.5a3.14,3.14,0,0,1,2.82,1.71,8.7,8.7,0,0,1,0,8.21,3.14,3.14,0,0,1-2.82,1.71h-27a7.59,7.59,0,0,1-4.1-1.07A3.36,3.36,0,0,1,219.45,80.36Z"/><path class="cls-8" d="M247.93,97.12q0-5.72,3.25-5.72,12.13,0,12.14-10.83l-15-29.46a3.63,3.63,0,0,1-.43-1.69c0-1.58,1-3,3.08-4.31a11.07,11.07,0,0,1,5.9-2c1.88,0,3.11.7,3.68,2.11l9.66,22.94,7.1-22.94a3.33,3.33,0,0,1,3.42-2.11,11.49,11.49,0,0,1,5.9,2q3.25,2,3.25,4.53a2.85,2.85,0,0,1-.34,1.45L277.44,81.45c-.29.8-.8,2.14-1.54,4l-1.54,3.94A29.29,29.29,0,0,1,272.77,93a17,17,0,0,1-2.13,3.38,36.35,36.35,0,0,1-2.7,2.66,11.2,11.2,0,0,1-3.59,2.22,33.46,33.46,0,0,1-4.53,1.24A28.46,28.46,0,0,1,254,103a7.45,7.45,0,0,1-4.53-1.16Q247.93,100.7,247.93,97.12Z"/><path class="cls-8" d="M292.4,80.36V47.78a3.31,3.31,0,0,1,1.84-2.91A9.1,9.1,0,0,1,299,43.76a7.3,7.3,0,0,1,4.1,1.12,3.38,3.38,0,0,1,1.71,2.93v2a11.7,11.7,0,0,1,4.41-4.65,13,13,0,0,1,7.05-1.9q5.91,0,10.23,5.31a19.45,19.45,0,0,1,4.32,12.66V80.36a3.32,3.32,0,0,1-2,3,9.75,9.75,0,0,1-4.71,1.07,9.29,9.29,0,0,1-4.57-1.11,3.33,3.33,0,0,1-2-3V61.27a6.35,6.35,0,0,0-1.84-4.43,5.74,5.74,0,0,0-4.32-2,5.52,5.52,0,0,0-4,1.74,6.28,6.28,0,0,0-1.75,4.65V80.38c0,1-.67,2-2,2.81A8.53,8.53,0,0,1,299,84.47a8.38,8.38,0,0,1-4.71-1.24A3.5,3.5,0,0,1,292.4,80.36Z"/><path class="cls-8" d="M336.45,80.36V21.52a3.31,3.31,0,0,1,1.84-2.91A8.88,8.88,0,0,1,343,17.5a9.54,9.54,0,0,1,4.83,1.11,3.29,3.29,0,0,1,1.93,2.91V58l14.2-13.77a3.47,3.47,0,0,1,2.56-1,6.21,6.21,0,0,1,4.28,2.1,6.06,6.06,0,0,1,2.14,4.23,3.2,3.2,0,0,1-1,2.31l-9.07,8.39,11.72,16.42a3.94,3.94,0,0,1,.69,2q0,2.22-2.57,4.4a7.85,7.85,0,0,1-5.05,2.19,3.61,3.61,0,0,1-3.16-1.63L354.07,68.39l-4.36,4v8c0,1-.67,2-2,2.83A8.7,8.7,0,0,1,343,84.47a8.19,8.19,0,0,1-4.62-1.24A3.5,3.5,0,0,1,336.45,80.36Z"/><path class="cls-8" d="M10.5,80.42V35.6a18,18,0,0,1,4.4-12.37,13.74,13.74,0,0,1,10.65-5h6.16A4.28,4.28,0,0,1,35.39,20a6.71,6.71,0,0,1,1.28,4.07,6.64,6.64,0,0,1-1.28,4.11,4.32,4.32,0,0,1-3.68,1.7H28.46c-3.14,0-4.7,1.54-4.7,4.62v9.24h9.66a2.64,2.64,0,0,1,2.4,1.54,8.11,8.11,0,0,1,0,7.23A2.66,2.66,0,0,1,33.42,54H23.76V80.56a3.25,3.25,0,0,1-2,2.79A9.59,9.59,0,0,1,17,84.47a8.79,8.79,0,0,1-4.66-1.12A3.33,3.33,0,0,1,10.5,80.42Z"/><path class="cls-8" d="M39,80.36V47.78a3.31,3.31,0,0,1,1.84-2.91,8.88,8.88,0,0,1,4.66-1.11,7.46,7.46,0,0,1,4.19,1.12,3.38,3.38,0,0,1,1.71,2.93V51a14.48,14.48,0,0,1,4.24-5.43,9.34,9.34,0,0,1,5.94-2.33H64A4.17,4.17,0,0,1,67.33,45,6.21,6.21,0,0,1,68.75,49a6.31,6.31,0,0,1-1.42,4.13A4.17,4.17,0,0,1,64,54.88H61.56q-3.68,0-6.5,3.54a14.25,14.25,0,0,0-2.82,9.16v12.8c0,1-.67,2-2,2.81a8.67,8.67,0,0,1-4.75,1.28,8.21,8.21,0,0,1-4.62-1.24A3.5,3.5,0,0,1,39,80.36Z"/><path class="cls-8" d="M72.59,36.71a5.29,5.29,0,0,1-2-4.11,5.17,5.17,0,0,1,2-4.07,7.51,7.51,0,0,1,5-1.71,7.37,7.37,0,0,1,4.88,1.71,5.14,5.14,0,0,1,2,4.07,5.26,5.26,0,0,1-2,4.11,7.3,7.3,0,0,1-4.88,1.74A7.43,7.43,0,0,1,72.59,36.71ZM71,80.36V47.78a3.31,3.31,0,0,1,1.84-2.91,9.06,9.06,0,0,1,4.74-1.11,9.35,9.35,0,0,1,4.75,1.11,3.31,3.31,0,0,1,1.93,2.91V80.36c0,1-.66,2-2,2.83a8.47,8.47,0,0,1-4.71,1.28,8.33,8.33,0,0,1-4.7-1.24A3.5,3.5,0,0,1,71,80.36Z"/><path class="cls-8" d="M88.59,67.19V61a16.26,16.26,0,0,1,5.77-12.49,20,20,0,0,1,13.9-5.22,19.34,19.34,0,0,1,13,4.6,14.7,14.7,0,0,1,5.39,11.7A11.88,11.88,0,0,1,126,64a4.26,4.26,0,0,1-2,2.38,9.39,9.39,0,0,1-2.52.9,17.71,17.71,0,0,1-3,.21H101.84V68a6.31,6.31,0,0,0,2.4,5.15,9.74,9.74,0,0,0,6.33,1.94,14.23,14.23,0,0,0,6.28-1.62,13.28,13.28,0,0,1,4.41-1.63,4.12,4.12,0,0,1,3.51,2,6.84,6.84,0,0,1,1.36,3.81q0,2.66-4.57,5.17a23.24,23.24,0,0,1-11.33,2.53q-9.58,0-15.61-5A16.22,16.22,0,0,1,88.59,67.19ZM101.84,60h10.61a1.62,1.62,0,0,0,1.8-1.86,3.9,3.9,0,0,0-1.84-3.4A7.69,7.69,0,0,0,108,53.51a7.53,7.53,0,0,0-4.32,1.24,3.9,3.9,0,0,0-1.84,3.4Z"/><path class="cls-8" d="M130.84,80.36V47.78a3.31,3.31,0,0,1,1.84-2.91,9,9,0,0,1,4.74-1.11,7.31,7.31,0,0,1,4.11,1.12,3.38,3.38,0,0,1,1.71,2.93v2a11.67,11.67,0,0,1,4.4-4.65,13.11,13.11,0,0,1,7.06-1.9q5.91,0,10.22,5.31a19.39,19.39,0,0,1,4.32,12.66V80.36a3.32,3.32,0,0,1-2,3,9.74,9.74,0,0,1-4.7,1.07A9.32,9.32,0,0,1,158,83.36a3.33,3.33,0,0,1-2-3V61.27a6.31,6.31,0,0,0-1.84-4.43,5.71,5.71,0,0,0-4.31-2,5.5,5.5,0,0,0-4,1.74,6.29,6.29,0,0,0-1.76,4.65V80.38c0,1-.67,2-2,2.81a8.51,8.51,0,0,1-4.66,1.28,8.33,8.33,0,0,1-4.7-1.24A3.47,3.47,0,0,1,130.84,80.36Z"/><path class="cls-8" d="M173.35,67.19v-6a19.06,19.06,0,0,1,4.44-12.66,13.52,13.52,0,0,1,10.69-5.31,11.62,11.62,0,0,1,6.55,1.9,12.74,12.74,0,0,1,4.32,4.65V21.6a3.3,3.3,0,0,1,1.92-2.9,9.56,9.56,0,0,1,4.83-1.11,8.92,8.92,0,0,1,4.67,1.11,3.31,3.31,0,0,1,1.83,2.9V80.37a3.46,3.46,0,0,1-1.88,2.86,8.17,8.17,0,0,1-4.62,1.24A6.78,6.78,0,0,1,202,83.18a3.6,3.6,0,0,1-1.76-2.85V78.44a11.78,11.78,0,0,1-4.7,4.86,13.78,13.78,0,0,1-7.27,2q-5.91,0-10.39-5.48A19.35,19.35,0,0,1,173.35,67.19Zm13.25,0a6.53,6.53,0,0,0,1.84,4.53,5.71,5.71,0,0,0,4.32,2,6.29,6.29,0,0,0,4.53-2c1.37-1.36,2.06-2.49,2.06-3.39v-7a5.82,5.82,0,0,0-2-4.57,6.6,6.6,0,0,0-4.49-1.78,5.86,5.86,0,0,0-4.41,1.95,6.28,6.28,0,0,0-1.84,4.4Z"/><path class="cls-8" d="M219.45,80.36V21.69a3.22,3.22,0,0,1,2-3,11.26,11.26,0,0,1,9.41,0,3.23,3.23,0,0,1,2,3V72.84h19.5a3.14,3.14,0,0,1,2.82,1.71,8.7,8.7,0,0,1,0,8.21,3.14,3.14,0,0,1-2.82,1.71h-27a7.59,7.59,0,0,1-4.1-1.07A3.36,3.36,0,0,1,219.45,80.36Z"/><path class="cls-8" d="M247.93,97.12q0-5.72,3.25-5.72,12.13,0,12.14-10.83l-15-29.46a3.63,3.63,0,0,1-.43-1.69c0-1.58,1-3,3.08-4.31a11.07,11.07,0,0,1,5.9-2c1.88,0,3.11.7,3.68,2.11l9.66,22.94,7.1-22.94a3.33,3.33,0,0,1,3.42-2.11,11.49,11.49,0,0,1,5.9,2q3.25,2,3.25,4.53a2.85,2.85,0,0,1-.34,1.45L277.44,81.45c-.29.8-.8,2.14-1.54,4l-1.54,3.94A29.29,29.29,0,0,1,272.77,93a17,17,0,0,1-2.13,3.38,36.35,36.35,0,0,1-2.7,2.66,11.2,11.2,0,0,1-3.59,2.22,33.46,33.46,0,0,1-4.53,1.24A28.46,28.46,0,0,1,254,103a7.45,7.45,0,0,1-4.53-1.16Q247.93,100.7,247.93,97.12Z"/><path class="cls-8" d="M292.4,80.36V47.78a3.31,3.31,0,0,1,1.84-2.91A9.1,9.1,0,0,1,299,43.76a7.3,7.3,0,0,1,4.1,1.12,3.38,3.38,0,0,1,1.71,2.93v2a11.7,11.7,0,0,1,4.41-4.65,13,13,0,0,1,7.05-1.9q5.91,0,10.23,5.31a19.45,19.45,0,0,1,4.32,12.66V80.36a3.32,3.32,0,0,1-2,3,9.75,9.75,0,0,1-4.71,1.07,9.29,9.29,0,0,1-4.57-1.11,3.33,3.33,0,0,1-2-3V61.27a6.35,6.35,0,0,0-1.84-4.43,5.74,5.74,0,0,0-4.32-2,5.52,5.52,0,0,0-4,1.74,6.28,6.28,0,0,0-1.75,4.65V80.38c0,1-.67,2-2,2.81A8.53,8.53,0,0,1,299,84.47a8.38,8.38,0,0,1-4.71-1.24A3.5,3.5,0,0,1,292.4,80.36Z"/><path class="cls-8" d="M336.45,80.36V21.52a3.31,3.31,0,0,1,1.84-2.91A8.88,8.88,0,0,1,343,17.5a9.54,9.54,0,0,1,4.83,1.11,3.29,3.29,0,0,1,1.93,2.91V58l14.2-13.77a3.47,3.47,0,0,1,2.56-1,6.21,6.21,0,0,1,4.28,2.1,6.06,6.06,0,0,1,2.14,4.23,3.2,3.2,0,0,1-1,2.31l-9.07,8.39,11.72,16.42a3.94,3.94,0,0,1,.69,2q0,2.22-2.57,4.4a7.85,7.85,0,0,1-5.05,2.19,3.61,3.61,0,0,1-3.16-1.63L354.07,68.39l-4.36,4v8c0,1-.67,2-2,2.83A8.7,8.7,0,0,1,343,84.47a8.19,8.19,0,0,1-4.62-1.24A3.5,3.5,0,0,1,336.45,80.36Z"/><path class="cls-8" d="M10.5,80.42V35.6a18,18,0,0,1,4.4-12.37,13.74,13.74,0,0,1,10.65-5h6.16A4.28,4.28,0,0,1,35.39,20a6.71,6.71,0,0,1,1.28,4.07,6.64,6.64,0,0,1-1.28,4.11,4.32,4.32,0,0,1-3.68,1.7H28.46c-3.14,0-4.7,1.54-4.7,4.62v9.24h9.66a2.64,2.64,0,0,1,2.4,1.54,8.11,8.11,0,0,1,0,7.23A2.66,2.66,0,0,1,33.42,54H23.76V80.56a3.25,3.25,0,0,1-2,2.79A9.59,9.59,0,0,1,17,84.47a8.79,8.79,0,0,1-4.66-1.12A3.33,3.33,0,0,1,10.5,80.42Z"/><path class="cls-8" d="M39,80.36V47.78a3.31,3.31,0,0,1,1.84-2.91,8.88,8.88,0,0,1,4.66-1.11,7.46,7.46,0,0,1,4.19,1.12,3.38,3.38,0,0,1,1.71,2.93V51a14.48,14.48,0,0,1,4.24-5.43,9.34,9.34,0,0,1,5.94-2.33H64A4.17,4.17,0,0,1,67.33,45,6.21,6.21,0,0,1,68.75,49a6.31,6.31,0,0,1-1.42,4.13A4.17,4.17,0,0,1,64,54.88H61.56q-3.68,0-6.5,3.54a14.25,14.25,0,0,0-2.82,9.16v12.8c0,1-.67,2-2,2.81a8.67,8.67,0,0,1-4.75,1.28,8.21,8.21,0,0,1-4.62-1.24A3.5,3.5,0,0,1,39,80.36Z"/><path class="cls-8" d="M72.59,36.71a5.29,5.29,0,0,1-2-4.11,5.17,5.17,0,0,1,2-4.07,7.51,7.51,0,0,1,5-1.71,7.37,7.37,0,0,1,4.88,1.71,5.14,5.14,0,0,1,2,4.07,5.26,5.26,0,0,1-2,4.11,7.3,7.3,0,0,1-4.88,1.74A7.43,7.43,0,0,1,72.59,36.71ZM71,80.36V47.78a3.31,3.31,0,0,1,1.84-2.91,9.06,9.06,0,0,1,4.74-1.11,9.35,9.35,0,0,1,4.75,1.11,3.31,3.31,0,0,1,1.93,2.91V80.36c0,1-.66,2-2,2.83a8.47,8.47,0,0,1-4.71,1.28,8.33,8.33,0,0,1-4.7-1.24A3.5,3.5,0,0,1,71,80.36Z"/><path class="cls-8" d="M88.59,67.19V61a16.26,16.26,0,0,1,5.77-12.49,20,20,0,0,1,13.9-5.22,19.34,19.34,0,0,1,13,4.6,14.7,14.7,0,0,1,5.39,11.7A11.88,11.88,0,0,1,126,64a4.26,4.26,0,0,1-2,2.38,9.39,9.39,0,0,1-2.52.9,17.71,17.71,0,0,1-3,.21H101.84V68a6.31,6.31,0,0,0,2.4,5.15,9.74,9.74,0,0,0,6.33,1.94,14.23,14.23,0,0,0,6.28-1.62,13.28,13.28,0,0,1,4.41-1.63,4.12,4.12,0,0,1,3.51,2,6.84,6.84,0,0,1,1.36,3.81q0,2.66-4.57,5.17a23.24,23.24,0,0,1-11.33,2.53q-9.58,0-15.61-5A16.22,16.22,0,0,1,88.59,67.19ZM101.84,60h10.61a1.62,1.62,0,0,0,1.8-1.86,3.9,3.9,0,0,0-1.84-3.4A7.69,7.69,0,0,0,108,53.51a7.53,7.53,0,0,0-4.32,1.24,3.9,3.9,0,0,0-1.84,3.4Z"/><path class="cls-8" d="M130.84,80.36V47.78a3.31,3.31,0,0,1,1.84-2.91,9,9,0,0,1,4.74-1.11,7.31,7.31,0,0,1,4.11,1.12,3.38,3.38,0,0,1,1.71,2.93v2a11.67,11.67,0,0,1,4.4-4.65,13.11,13.11,0,0,1,7.06-1.9q5.91,0,10.22,5.31a19.39,19.39,0,0,1,4.32,12.66V80.36a3.32,3.32,0,0,1-2,3,9.74,9.74,0,0,1-4.7,1.07A9.32,9.32,0,0,1,158,83.36a3.33,3.33,0,0,1-2-3V61.27a6.31,6.31,0,0,0-1.84-4.43,5.71,5.71,0,0,0-4.31-2,5.5,5.5,0,0,0-4,1.74,6.29,6.29,0,0,0-1.76,4.65V80.38c0,1-.67,2-2,2.81a8.51,8.51,0,0,1-4.66,1.28,8.33,8.33,0,0,1-4.7-1.24A3.47,3.47,0,0,1,130.84,80.36Z"/><path class="cls-8" d="M173.35,67.19v-6a19.06,19.06,0,0,1,4.44-12.66,13.52,13.52,0,0,1,10.69-5.31,11.62,11.62,0,0,1,6.55,1.9,12.74,12.74,0,0,1,4.32,4.65V21.6a3.3,3.3,0,0,1,1.92-2.9,9.56,9.56,0,0,1,4.83-1.11,8.92,8.92,0,0,1,4.67,1.11,3.31,3.31,0,0,1,1.83,2.9V80.37a3.46,3.46,0,0,1-1.88,2.86,8.17,8.17,0,0,1-4.62,1.24A6.78,6.78,0,0,1,202,83.18a3.6,3.6,0,0,1-1.76-2.85V78.44a11.78,11.78,0,0,1-4.7,4.86,13.78,13.78,0,0,1-7.27,2q-5.91,0-10.39-5.48A19.35,19.35,0,0,1,173.35,67.19Zm13.25,0a6.53,6.53,0,0,0,1.84,4.53,5.71,5.71,0,0,0,4.32,2,6.29,6.29,0,0,0,4.53-2c1.37-1.36,2.06-2.49,2.06-3.39v-7a5.82,5.82,0,0,0-2-4.57,6.6,6.6,0,0,0-4.49-1.78,5.86,5.86,0,0,0-4.41,1.95,6.28,6.28,0,0,0-1.84,4.4Z"/><path class="cls-8" d="M219.45,80.36V21.69a3.22,3.22,0,0,1,2-3,11.26,11.26,0,0,1,9.41,0,3.23,3.23,0,0,1,2,3V72.84h19.5a3.14,3.14,0,0,1,2.82,1.71,8.7,8.7,0,0,1,0,8.21,3.14,3.14,0,0,1-2.82,1.71h-27a7.59,7.59,0,0,1-4.1-1.07A3.36,3.36,0,0,1,219.45,80.36Z"/><path class="cls-8" d="M247.93,97.12q0-5.72,3.25-5.72,12.13,0,12.14-10.83l-15-29.46a3.63,3.63,0,0,1-.43-1.69c0-1.58,1-3,3.08-4.31a11.07,11.07,0,0,1,5.9-2c1.88,0,3.11.7,3.68,2.11l9.66,22.94,7.1-22.94a3.33,3.33,0,0,1,3.42-2.11,11.49,11.49,0,0,1,5.9,2q3.25,2,3.25,4.53a2.85,2.85,0,0,1-.34,1.45L277.44,81.45c-.29.8-.8,2.14-1.54,4l-1.54,3.94A29.29,29.29,0,0,1,272.77,93a17,17,0,0,1-2.13,3.38,36.35,36.35,0,0,1-2.7,2.66,11.2,11.2,0,0,1-3.59,2.22,33.46,33.46,0,0,1-4.53,1.24A28.46,28.46,0,0,1,254,103a7.45,7.45,0,0,1-4.53-1.16Q247.93,100.7,247.93,97.12Z"/><path class="cls-8" d="M292.4,80.36V47.78a3.31,3.31,0,0,1,1.84-2.91A9.1,9.1,0,0,1,299,43.76a7.3,7.3,0,0,1,4.1,1.12,3.38,3.38,0,0,1,1.71,2.93v2a11.7,11.7,0,0,1,4.41-4.65,13,13,0,0,1,7.05-1.9q5.91,0,10.23,5.31a19.45,19.45,0,0,1,4.32,12.66V80.36a3.32,3.32,0,0,1-2,3,9.75,9.75,0,0,1-4.71,1.07,9.29,9.29,0,0,1-4.57-1.11,3.33,3.33,0,0,1-2-3V61.27a6.35,6.35,0,0,0-1.84-4.43,5.74,5.74,0,0,0-4.32-2,5.52,5.52,0,0,0-4,1.74,6.28,6.28,0,0,0-1.75,4.65V80.38c0,1-.67,2-2,2.81A8.53,8.53,0,0,1,299,84.47a8.38,8.38,0,0,1-4.71-1.24A3.5,3.5,0,0,1,292.4,80.36Z"/><path class="cls-8" d="M336.45,80.36V21.52a3.31,3.31,0,0,1,1.84-2.91A8.88,8.88,0,0,1,343,17.5a9.54,9.54,0,0,1,4.83,1.11,3.29,3.29,0,0,1,1.93,2.91V58l14.2-13.77a3.47,3.47,0,0,1,2.56-1,6.21,6.21,0,0,1,4.28,2.1,6.06,6.06,0,0,1,2.14,4.23,3.2,3.2,0,0,1-1,2.31l-9.07,8.39,11.72,16.42a3.94,3.94,0,0,1,.69,2q0,2.22-2.57,4.4a7.85,7.85,0,0,1-5.05,2.19,3.61,3.61,0,0,1-3.16-1.63L354.07,68.39l-4.36,4v8c0,1-.67,2-2,2.83A8.7,8.7,0,0,1,343,84.47a8.19,8.19,0,0,1-4.62-1.24A3.5,3.5,0,0,1,336.45,80.36Z"/><g id="Link-2" data-name="Link"><path class="cls-9" d="M288.17,28.85h0c0-4.24-3.88-7.7-8.63-7.7H251.26c-4.75,0-8.63,3.46-8.63,7.7h0c0,4.23,3.88,7.69,8.63,7.69"/><path class="cls-9" d="M280.9,28.85c0,4.23,3.89,7.69,8.64,7.69h28.27c4.75,0,8.64-3.46,8.64-7.69h0c0-4.24-3.89-7.7-8.64-7.7H289.54"/><path class="cls-9" d="M279.54,36.54c4.75,0,8.63-3.46,8.63-7.69"/><line class="cls-9" x1="251.26" y1="36.54" x2="279.54" y2="36.54"/><path class="cls-9" d="M289.54,21.15c-4.75,0-8.64,3.46-8.64,7.7h0"/><path class="cls-10" d="M288.17,28.85h0c0-4.24-3.88-7.7-8.63-7.7H251.26c-4.75,0-8.63,3.46-8.63,7.7h0c0,4.23,3.88,7.69,8.63,7.69"/><path class="cls-11" d="M280.9,28.85c0,4.23,3.89,7.69,8.64,7.69h28.27c4.75,0,8.64-3.46,8.64-7.69h0c0-4.24-3.89-7.7-8.64-7.7H289.54"/><path class="cls-12" d="M279.54,36.54c4.75,0,8.63-3.46,8.63-7.69"/><line class="cls-10" x1="251.26" y1="36.54" x2="279.54" y2="36.54"/><path class="cls-11" d="M289.54,21.15c-4.75,0-8.64,3.46-8.64,7.7h0"/></g><path class="cls-13" d="M10.5,80.42V35.6a18,18,0,0,1,4.4-12.37,13.74,13.74,0,0,1,10.65-5h6.16A4.28,4.28,0,0,1,35.39,20a6.71,6.71,0,0,1,1.28,4.07,6.64,6.64,0,0,1-1.28,4.11,4.32,4.32,0,0,1-3.68,1.7H28.46c-3.14,0-4.7,1.54-4.7,4.62v9.24h9.66a2.64,2.64,0,0,1,2.4,1.54,8.11,8.11,0,0,1,0,7.23A2.66,2.66,0,0,1,33.42,54H23.76V80.56a3.25,3.25,0,0,1-2,2.79A9.59,9.59,0,0,1,17,84.47a8.79,8.79,0,0,1-4.66-1.12A3.33,3.33,0,0,1,10.5,80.42Z"/><path class="cls-13" d="M39,80.36V47.78a3.31,3.31,0,0,1,1.84-2.91,8.88,8.88,0,0,1,4.66-1.11,7.46,7.46,0,0,1,4.19,1.12,3.38,3.38,0,0,1,1.71,2.93V51a14.48,14.48,0,0,1,4.24-5.43,9.34,9.34,0,0,1,5.94-2.33H64A4.17,4.17,0,0,1,67.33,45,6.21,6.21,0,0,1,68.75,49a6.31,6.31,0,0,1-1.42,4.13A4.17,4.17,0,0,1,64,54.88H61.56q-3.68,0-6.5,3.54a14.25,14.25,0,0,0-2.82,9.16v12.8c0,1-.67,2-2,2.81a8.67,8.67,0,0,1-4.75,1.28,8.21,8.21,0,0,1-4.62-1.24A3.5,3.5,0,0,1,39,80.36Z"/><path class="cls-13" d="M72.59,36.71a5.29,5.29,0,0,1-2-4.11,5.17,5.17,0,0,1,2-4.07,7.51,7.51,0,0,1,5-1.71,7.37,7.37,0,0,1,4.88,1.71,5.14,5.14,0,0,1,2,4.07,5.26,5.26,0,0,1-2,4.11,7.3,7.3,0,0,1-4.88,1.74A7.43,7.43,0,0,1,72.59,36.71ZM71,80.36V47.78a3.31,3.31,0,0,1,1.84-2.91,9.06,9.06,0,0,1,4.74-1.11,9.35,9.35,0,0,1,4.75,1.11,3.31,3.31,0,0,1,1.93,2.91V80.36c0,1-.66,2-2,2.83a8.47,8.47,0,0,1-4.71,1.28,8.33,8.33,0,0,1-4.7-1.24A3.5,3.5,0,0,1,71,80.36Z"/><path class="cls-13" d="M88.59,67.19V61a16.26,16.26,0,0,1,5.77-12.49,20,20,0,0,1,13.9-5.22,19.34,19.34,0,0,1,13,4.6,14.7,14.7,0,0,1,5.39,11.7A11.88,11.88,0,0,1,126,64a4.26,4.26,0,0,1-2,2.38,9.39,9.39,0,0,1-2.52.9,17.71,17.71,0,0,1-3,.21H101.84V68a6.31,6.31,0,0,0,2.4,5.15,9.74,9.74,0,0,0,6.33,1.94,14.23,14.23,0,0,0,6.28-1.62,13.28,13.28,0,0,1,4.41-1.63,4.12,4.12,0,0,1,3.51,2,6.84,6.84,0,0,1,1.36,3.81q0,2.66-4.57,5.17a23.24,23.24,0,0,1-11.33,2.53q-9.58,0-15.61-5A16.22,16.22,0,0,1,88.59,67.19ZM101.84,60h10.61a1.62,1.62,0,0,0,1.8-1.86,3.9,3.9,0,0,0-1.84-3.4A7.69,7.69,0,0,0,108,53.51a7.53,7.53,0,0,0-4.32,1.24,3.9,3.9,0,0,0-1.84,3.4Z"/><path class="cls-13" d="M130.84,80.36V47.78a3.31,3.31,0,0,1,1.84-2.91,9,9,0,0,1,4.74-1.11,7.31,7.31,0,0,1,4.11,1.12,3.38,3.38,0,0,1,1.71,2.93v2a11.67,11.67,0,0,1,4.4-4.65,13.11,13.11,0,0,1,7.06-1.9q5.91,0,10.22,5.31a19.39,19.39,0,0,1,4.32,12.66V80.36a3.32,3.32,0,0,1-2,3,9.74,9.74,0,0,1-4.7,1.07A9.32,9.32,0,0,1,158,83.36a3.33,3.33,0,0,1-2-3V61.27a6.31,6.31,0,0,0-1.84-4.43,5.71,5.71,0,0,0-4.31-2,5.5,5.5,0,0,0-4,1.74,6.29,6.29,0,0,0-1.76,4.65V80.38c0,1-.67,2-2,2.81a8.51,8.51,0,0,1-4.66,1.28,8.33,8.33,0,0,1-4.7-1.24A3.47,3.47,0,0,1,130.84,80.36Z"/><path class="cls-13" d="M173.35,67.19v-6a19.06,19.06,0,0,1,4.44-12.66,13.52,13.52,0,0,1,10.69-5.31,11.62,11.62,0,0,1,6.55,1.9,12.74,12.74,0,0,1,4.32,4.65V21.6a3.3,3.3,0,0,1,1.92-2.9,9.56,9.56,0,0,1,4.83-1.11,8.92,8.92,0,0,1,4.67,1.11,3.31,3.31,0,0,1,1.83,2.9V80.37a3.46,3.46,0,0,1-1.88,2.86,8.17,8.17,0,0,1-4.62,1.24A6.78,6.78,0,0,1,202,83.18a3.6,3.6,0,0,1-1.76-2.85V78.44a11.78,11.78,0,0,1-4.7,4.86,13.78,13.78,0,0,1-7.27,2q-5.91,0-10.39-5.48A19.35,19.35,0,0,1,173.35,67.19Zm13.25,0a6.53,6.53,0,0,0,1.84,4.53,5.71,5.71,0,0,0,4.32,2,6.29,6.29,0,0,0,4.53-2c1.37-1.36,2.06-2.49,2.06-3.39v-7a5.82,5.82,0,0,0-2-4.57,6.6,6.6,0,0,0-4.49-1.78,5.86,5.86,0,0,0-4.41,1.95,6.28,6.28,0,0,0-1.84,4.4Z"/><path class="cls-14" d="M219.45,80.36V21.69a3.22,3.22,0,0,1,2-3,11.26,11.26,0,0,1,9.41,0,3.23,3.23,0,0,1,2,3V72.84h19.5a3.14,3.14,0,0,1,2.82,1.71,8.7,8.7,0,0,1,0,8.21,3.14,3.14,0,0,1-2.82,1.71h-27a7.59,7.59,0,0,1-4.1-1.07A3.36,3.36,0,0,1,219.45,80.36Z"/><path class="cls-14" d="M247.93,97.12q0-5.72,3.25-5.72,12.13,0,12.14-10.83l-15-29.46a3.63,3.63,0,0,1-.43-1.69c0-1.58,1-3,3.08-4.31a11.07,11.07,0,0,1,5.9-2c1.88,0,3.11.7,3.68,2.11l9.66,22.94,7.1-22.94a3.33,3.33,0,0,1,3.42-2.11,11.49,11.49,0,0,1,5.9,2q3.25,2,3.25,4.53a2.85,2.85,0,0,1-.34,1.45L277.44,81.45c-.29.8-.8,2.14-1.54,4l-1.54,3.94A29.29,29.29,0,0,1,272.77,93a17,17,0,0,1-2.13,3.38,36.35,36.35,0,0,1-2.7,2.66,11.2,11.2,0,0,1-3.59,2.22,33.46,33.46,0,0,1-4.53,1.24A28.46,28.46,0,0,1,254,103a7.45,7.45,0,0,1-4.53-1.16Q247.93,100.7,247.93,97.12Z"/><path class="cls-14" d="M292.4,80.36V47.78a3.31,3.31,0,0,1,1.84-2.91A9.1,9.1,0,0,1,299,43.76a7.3,7.3,0,0,1,4.1,1.12,3.38,3.38,0,0,1,1.71,2.93v2a11.7,11.7,0,0,1,4.41-4.65,13,13,0,0,1,7.05-1.9q5.91,0,10.23,5.31a19.45,19.45,0,0,1,4.32,12.66V80.36a3.32,3.32,0,0,1-2,3,9.75,9.75,0,0,1-4.71,1.07,9.29,9.29,0,0,1-4.57-1.11,3.33,3.33,0,0,1-2-3V61.27a6.35,6.35,0,0,0-1.84-4.43,5.74,5.74,0,0,0-4.32-2,5.52,5.52,0,0,0-4,1.74,6.28,6.28,0,0,0-1.75,4.65V80.38c0,1-.67,2-2,2.81A8.53,8.53,0,0,1,299,84.47a8.38,8.38,0,0,1-4.71-1.24A3.5,3.5,0,0,1,292.4,80.36Z"/><path class="cls-14" d="M336.45,80.36V21.52a3.31,3.31,0,0,1,1.84-2.91A8.88,8.88,0,0,1,343,17.5a9.54,9.54,0,0,1,4.83,1.11,3.29,3.29,0,0,1,1.93,2.91V58l14.2-13.77a3.47,3.47,0,0,1,2.56-1,6.21,6.21,0,0,1,4.28,2.1,6.06,6.06,0,0,1,2.14,4.23,3.2,3.2,0,0,1-1,2.31l-9.07,8.39,11.72,16.42a3.94,3.94,0,0,1,.69,2q0,2.22-2.57,4.4a7.85,7.85,0,0,1-5.05,2.19,3.61,3.61,0,0,1-3.16-1.63L354.07,68.39l-4.36,4v8c0,1-.67,2-2,2.83A8.7,8.7,0,0,1,343,84.47a8.19,8.19,0,0,1-4.62-1.24A3.5,3.5,0,0,1,336.45,80.36Z"/></g></g></g></svg>